<svg xmlns="http://www.w3.org/2000/svg" width="24" height="24" viewBox="0 0 24 24"><path fill="currentColor" d="M12 1.25a.75.75 0 0 1 .75.75v1a.75.75 0 0 1-1.5 0V2a.75.75 0 0 1 .75-.75m0 5a5.75 5.75 0 1 0 0 11.5a5.75 5.75 0 0 0 0-11.5M5.46 4.399a.75.75 0 0 0-1.061 1.06l.707.707a.75.75 0 1 0 1.06-1.06zM22.75 12a.75.75 0 0 1-.75.75h-1a.75.75 0 0 1 0-1.5h1a.75.75 0 0 1 .75.75m-3.149-6.54a.75.75 0 1 0-1.06-1.061l-.707.707a.75.75 0 1 0 1.06 1.06zM12 20.25a.75.75 0 0 1 .75.75v1a.75.75 0 0 1-1.5 0v-1a.75.75 0 0 1 .75-.75m6.894-2.416a.75.75 0 1 0-1.06 1.06l.707.707a.75.75 0 1 0 1.06-1.06zM3.75 12a.75.75 0 0 1-.75.75H2a.75.75 0 0 1 0-1.5h1a.75.75 0 0 1 .75.75m2.416 6.894a.75.75 0 0 0-1.06-1.06l-.707.707a.75.75 0 0 0 1.06 1.06z"/></svg>